<mxfile host="app.diagrams.net" modified="2023-10-04T02:14:32.106Z" agent="Mozilla/5.0 (Windows NT 10.0; Win64; x64) AppleWebKit/537.36 (KHTML, like Gecko) Chrome/117.0.0.0 Safari/537.36" etag="nQiHAeO4B2BCC_ZGOqrH" version="22.0.2" type="google" pages="2">
  <diagram name="Page-1" id="Fd8HyxUS0kIHceG-LwEY">
    <mxGraphModel grid="1" page="1" gridSize="10" guides="1" tooltips="1" connect="1" arrows="1" fold="1" pageScale="1" pageWidth="850" pageHeight="1100" math="0" shadow="0">
      <root>
        <mxCell id="0" />
        <mxCell id="1" parent="0" />
        <mxCell id="8Hi-OJCY7MLfPdhgwdzg-4" style="edgeStyle=orthogonalEdgeStyle;rounded=0;orthogonalLoop=1;jettySize=auto;html=1;exitX=0.5;exitY=1;exitDx=0;exitDy=0;entryX=0.5;entryY=0;entryDx=0;entryDy=0;" edge="1" parent="1" source="8Hi-OJCY7MLfPdhgwdzg-1" target="8Hi-OJCY7MLfPdhgwdzg-3">
          <mxGeometry relative="1" as="geometry" />
        </mxCell>
        <mxCell id="8Hi-OJCY7MLfPdhgwdzg-1" value="Start" style="ellipse;whiteSpace=wrap;html=1;" vertex="1" parent="1">
          <mxGeometry x="365" y="50" width="120" height="80" as="geometry" />
        </mxCell>
        <mxCell id="8Hi-OJCY7MLfPdhgwdzg-11" style="edgeStyle=orthogonalEdgeStyle;rounded=0;orthogonalLoop=1;jettySize=auto;html=1;exitX=0.5;exitY=1;exitDx=0;exitDy=0;" edge="1" parent="1" source="8Hi-OJCY7MLfPdhgwdzg-3" target="8Hi-OJCY7MLfPdhgwdzg-10">
          <mxGeometry relative="1" as="geometry" />
        </mxCell>
        <mxCell id="8Hi-OJCY7MLfPdhgwdzg-3" value="angka" style="shape=parallelogram;perimeter=parallelogramPerimeter;whiteSpace=wrap;html=1;fixedSize=1;" vertex="1" parent="1">
          <mxGeometry x="365" y="230" width="120" height="60" as="geometry" />
        </mxCell>
        <mxCell id="8Hi-OJCY7MLfPdhgwdzg-16" value="" style="edgeStyle=orthogonalEdgeStyle;rounded=0;orthogonalLoop=1;jettySize=auto;html=1;" edge="1" parent="1" source="8Hi-OJCY7MLfPdhgwdzg-10" target="8Hi-OJCY7MLfPdhgwdzg-15">
          <mxGeometry relative="1" as="geometry" />
        </mxCell>
        <mxCell id="8Hi-OJCY7MLfPdhgwdzg-10" value="Tebak angka" style="shape=parallelogram;perimeter=parallelogramPerimeter;whiteSpace=wrap;html=1;fixedSize=1;" vertex="1" parent="1">
          <mxGeometry x="365" y="350" width="120" height="60" as="geometry" />
        </mxCell>
        <mxCell id="8Hi-OJCY7MLfPdhgwdzg-18" value="" style="edgeStyle=orthogonalEdgeStyle;rounded=0;orthogonalLoop=1;jettySize=auto;html=1;" edge="1" parent="1" source="8Hi-OJCY7MLfPdhgwdzg-15" target="8Hi-OJCY7MLfPdhgwdzg-17">
          <mxGeometry relative="1" as="geometry" />
        </mxCell>
        <mxCell id="8Hi-OJCY7MLfPdhgwdzg-15" value="Menebak angka" style="whiteSpace=wrap;html=1;" vertex="1" parent="1">
          <mxGeometry x="365" y="490" width="120" height="60" as="geometry" />
        </mxCell>
        <mxCell id="8Hi-OJCY7MLfPdhgwdzg-31" value="" style="edgeStyle=orthogonalEdgeStyle;rounded=0;orthogonalLoop=1;jettySize=auto;html=1;" edge="1" parent="1" source="8Hi-OJCY7MLfPdhgwdzg-17" target="8Hi-OJCY7MLfPdhgwdzg-30">
          <mxGeometry relative="1" as="geometry" />
        </mxCell>
        <mxCell id="8Hi-OJCY7MLfPdhgwdzg-33" value="" style="edgeStyle=orthogonalEdgeStyle;rounded=0;orthogonalLoop=1;jettySize=auto;html=1;" edge="1" parent="1" source="8Hi-OJCY7MLfPdhgwdzg-17" target="8Hi-OJCY7MLfPdhgwdzg-32">
          <mxGeometry relative="1" as="geometry" />
        </mxCell>
        <mxCell id="8Hi-OJCY7MLfPdhgwdzg-17" value="angka" style="rhombus;whiteSpace=wrap;html=1;" vertex="1" parent="1">
          <mxGeometry x="385" y="620" width="80" height="80" as="geometry" />
        </mxCell>
        <mxCell id="8Hi-OJCY7MLfPdhgwdzg-39" style="edgeStyle=orthogonalEdgeStyle;rounded=0;orthogonalLoop=1;jettySize=auto;html=1;exitX=0;exitY=0.5;exitDx=0;exitDy=0;entryX=1;entryY=0.5;entryDx=0;entryDy=0;" edge="1" parent="1" source="8Hi-OJCY7MLfPdhgwdzg-30" target="8Hi-OJCY7MLfPdhgwdzg-38">
          <mxGeometry relative="1" as="geometry" />
        </mxCell>
        <mxCell id="8Hi-OJCY7MLfPdhgwdzg-30" value="benar" style="shape=parallelogram;perimeter=parallelogramPerimeter;whiteSpace=wrap;html=1;fixedSize=1;" vertex="1" parent="1">
          <mxGeometry x="205" y="630" width="120" height="60" as="geometry" />
        </mxCell>
        <mxCell id="8Hi-OJCY7MLfPdhgwdzg-35" value="" style="edgeStyle=orthogonalEdgeStyle;rounded=0;orthogonalLoop=1;jettySize=auto;html=1;" edge="1" parent="1" source="8Hi-OJCY7MLfPdhgwdzg-32" target="8Hi-OJCY7MLfPdhgwdzg-34">
          <mxGeometry relative="1" as="geometry" />
        </mxCell>
        <mxCell id="y7AVqft0uw-ikm4qnz5v-4" value="" style="edgeStyle=orthogonalEdgeStyle;rounded=0;orthogonalLoop=1;jettySize=auto;html=1;" edge="1" parent="1" source="8Hi-OJCY7MLfPdhgwdzg-32" target="y7AVqft0uw-ikm4qnz5v-3">
          <mxGeometry relative="1" as="geometry" />
        </mxCell>
        <mxCell id="8Hi-OJCY7MLfPdhgwdzg-32" value="angka tebakan" style="rhombus;whiteSpace=wrap;html=1;" vertex="1" parent="1">
          <mxGeometry x="365" y="770" width="120" height="110" as="geometry" />
        </mxCell>
        <mxCell id="y7AVqft0uw-ikm4qnz5v-2" value="" style="edgeStyle=orthogonalEdgeStyle;rounded=0;orthogonalLoop=1;jettySize=auto;html=1;" edge="1" parent="1" source="8Hi-OJCY7MLfPdhgwdzg-34" target="y7AVqft0uw-ikm4qnz5v-1">
          <mxGeometry relative="1" as="geometry" />
        </mxCell>
        <mxCell id="y7AVqft0uw-ikm4qnz5v-8" style="edgeStyle=orthogonalEdgeStyle;rounded=0;orthogonalLoop=1;jettySize=auto;html=1;exitX=0;exitY=0.5;exitDx=0;exitDy=0;entryX=0.5;entryY=1;entryDx=0;entryDy=0;" edge="1" parent="1" source="8Hi-OJCY7MLfPdhgwdzg-34" target="8Hi-OJCY7MLfPdhgwdzg-30">
          <mxGeometry relative="1" as="geometry" />
        </mxCell>
        <mxCell id="8Hi-OJCY7MLfPdhgwdzg-34" value="angka tebakan" style="rhombus;whiteSpace=wrap;html=1;" vertex="1" parent="1">
          <mxGeometry x="340" y="970" width="170" height="85" as="geometry" />
        </mxCell>
        <mxCell id="8Hi-OJCY7MLfPdhgwdzg-38" value="selesai" style="ellipse;whiteSpace=wrap;html=1;" vertex="1" parent="1">
          <mxGeometry x="20" y="620" width="120" height="80" as="geometry" />
        </mxCell>
        <mxCell id="y7AVqft0uw-ikm4qnz5v-5" style="edgeStyle=orthogonalEdgeStyle;rounded=0;orthogonalLoop=1;jettySize=auto;html=1;exitX=1;exitY=0.5;exitDx=0;exitDy=0;entryX=1;entryY=0.5;entryDx=0;entryDy=0;" edge="1" parent="1" source="y7AVqft0uw-ikm4qnz5v-1" target="8Hi-OJCY7MLfPdhgwdzg-10">
          <mxGeometry relative="1" as="geometry">
            <Array as="points">
              <mxPoint x="800" y="1013" />
              <mxPoint x="800" y="380" />
            </Array>
          </mxGeometry>
        </mxCell>
        <mxCell id="y7AVqft0uw-ikm4qnz5v-1" value="angka lebih besar" style="shape=parallelogram;perimeter=parallelogramPerimeter;whiteSpace=wrap;html=1;fixedSize=1;" vertex="1" parent="1">
          <mxGeometry x="615" y="982.5" width="120" height="60" as="geometry" />
        </mxCell>
        <mxCell id="y7AVqft0uw-ikm4qnz5v-6" style="edgeStyle=orthogonalEdgeStyle;rounded=0;orthogonalLoop=1;jettySize=auto;html=1;exitX=1;exitY=0.5;exitDx=0;exitDy=0;entryX=1;entryY=1;entryDx=0;entryDy=0;" edge="1" parent="1" source="y7AVqft0uw-ikm4qnz5v-3" target="8Hi-OJCY7MLfPdhgwdzg-10">
          <mxGeometry relative="1" as="geometry">
            <Array as="points">
              <mxPoint x="700" y="825" />
              <mxPoint x="700" y="401" />
            </Array>
          </mxGeometry>
        </mxCell>
        <mxCell id="y7AVqft0uw-ikm4qnz5v-3" value="angka lebih kecil" style="shape=parallelogram;perimeter=parallelogramPerimeter;whiteSpace=wrap;html=1;fixedSize=1;" vertex="1" parent="1">
          <mxGeometry x="565" y="795" width="120" height="60" as="geometry" />
        </mxCell>
      </root>
    </mxGraphModel>
  </diagram>
  <diagram id="oMvU2N6oETjf6UMQsjjx" name="Page-2">
    <mxGraphModel grid="1" page="1" gridSize="10" guides="1" tooltips="1" connect="1" arrows="1" fold="1" pageScale="1" pageWidth="850" pageHeight="1100" math="0" shadow="0">
      <root>
        <mxCell id="0" />
        <mxCell id="1" parent="0" />
      </root>
    </mxGraphModel>
  </diagram>
</mxfile>
